<svg width="64" height="64" viewBox="0 0 64 64" fill="none" xmlns="http://www.w3.org/2000/svg">
<circle cx="32" cy="32" r="31.5" stroke="#00C194" stroke-opacity="0.4"/>
<circle cx="32" cy="32" r="28" fill="#00C194" fill-opacity="0.4"/>
<rect x="33.6499" y="25" width="2" height="10" fill="#00C194"/>
<rect x="22" y="32" width="2" height="10" fill="#00C194"/>
<rect x="39" y="25" width="2" height="10" fill="#00C194"/>
<path d="M22.6666 26.6667C20.4533 26.6667 18.6666 28.4534 18.6666 30.6667V41.3334C18.6666 43.5467 20.4533 45.3334 22.6666 45.3334H24.6666C26.1333 45.3334 27.3333 44.1334 27.3333 42.6667V29.3334C27.3333 27.8667 26.1333 26.6667 24.6666 26.6667H22.6666ZM24 38.6667C24 39.2134 23.5466 39.6667 23 39.6667C22.4533 39.6667 22 39.2134 22 38.6667V33.3334C22 32.7867 22.4533 32.3334 23 32.3334C23.5466 32.3334 24 32.7867 24 33.3334V38.6667Z" fill="white"/>
<g filter="url(#filter0_d_601_2283)">
<path d="M41.3334 18.6667H33.3334C31.12 18.6667 29.3334 20.4534 29.3334 22.6667V41.3334C29.3334 43.5467 31.12 45.3334 33.3334 45.3334H34C34.3734 45.3334 34.6667 45.0401 34.6667 44.6667V40.0001C34.6667 39.2667 35.2667 38.6667 36 38.6667H38.6667C39.4 38.6667 40 39.2667 40 40.0001V44.6667C40 45.0401 40.2934 45.3334 40.6667 45.3334H41.3334C43.5467 45.3334 45.3334 43.5467 45.3334 41.3334V22.6667C45.3334 20.4534 43.5467 18.6667 41.3334 18.6667ZM35.6667 33.3334C35.6667 33.8801 35.2134 34.3334 34.6667 34.3334C34.12 34.3334 33.6667 33.8801 33.6667 33.3334V26.6667C33.6667 26.1201 34.12 25.6667 34.6667 25.6667C35.2134 25.6667 35.6667 26.1201 35.6667 26.6667V33.3334ZM41 33.3334C41 33.8801 40.5467 34.3334 40 34.3334C39.4534 34.3334 39 33.8801 39 33.3334V26.6667C39 26.1201 39.4534 25.6667 40 25.6667C40.5467 25.6667 41 26.1201 41 26.6667V33.3334Z" fill="white"/>
</g>
<rect x="40" y="40" width="24" height="24" rx="12" fill="#00C194"/>
<path d="M51.6667 57.9999C55.1645 57.9999 58 55.1644 58 51.6666C58 48.1688 55.1645 45.3333 51.6667 45.3333C48.1689 45.3333 45.3334 48.1688 45.3334 51.6666C45.3334 55.1644 48.1689 57.9999 51.6667 57.9999Z" stroke="white" stroke-width="2" stroke-linecap="round" stroke-linejoin="round"/>
<path d="M58.6667 58.6668L57.3334 57.3335" stroke="white" stroke-width="2" stroke-linecap="round" stroke-linejoin="round"/>
<defs>
<filter id="filter0_d_601_2283" x="25.3334" y="18.6667" width="24" height="34.6667" filterUnits="userSpaceOnUse" color-interpolation-filters="sRGB">
<feFlood flood-opacity="0" result="BackgroundImageFix"/>
<feColorMatrix in="SourceAlpha" type="matrix" values="0 0 0 0 0 0 0 0 0 0 0 0 0 0 0 0 0 0 127 0" result="hardAlpha"/>
<feOffset dy="4"/>
<feGaussianBlur stdDeviation="2"/>
<feComposite in2="hardAlpha" operator="out"/>
<feColorMatrix type="matrix" values="0 0 0 0 0 0 0 0 0 0 0 0 0 0 0 0 0 0 0.25 0"/>
<feBlend mode="normal" in2="BackgroundImageFix" result="effect1_dropShadow_601_2283"/>
<feBlend mode="normal" in="SourceGraphic" in2="effect1_dropShadow_601_2283" result="shape"/>
</filter>
</defs>
</svg>
