<svg width="64" height="64" viewBox="0 0 64 64" fill="none" xmlns="http://www.w3.org/2000/svg">
<circle cx="32" cy="32" r="31.5" stroke="#00C194" stroke-opacity="0.4"/>
<circle cx="32" cy="32" r="28" fill="#00C194" fill-opacity="0.4"/>
<g clip-path="url(#clip0_601_2266)">
<path d="M43.6166 26.5094L34.7283 19.6024C33.9483 18.9962 32.9882 18.667 32 18.667C31.0117 18.667 30.0516 18.9962 29.2716 19.6024L20.3816 26.5094C19.8474 26.9245 19.4151 27.456 19.1179 28.0635C18.8207 28.671 18.6663 29.3383 18.6666 30.0145V42.0034C18.6666 42.8866 19.0178 43.7337 19.6429 44.3582C20.2681 44.9828 21.1159 45.3337 22 45.3337H42C42.884 45.3337 43.7319 44.9828 44.357 44.3582C44.9821 43.7337 45.3333 42.8866 45.3333 42.0034V30.0145C45.3333 28.6441 44.7 27.3503 43.6166 26.5094Z" fill="white" stroke="white" stroke-width="2" stroke-linecap="round" stroke-linejoin="round"/>
</g>
<path d="M27 37L37 27" stroke="#00C194" stroke-width="2" stroke-linecap="round" stroke-linejoin="round"/>
<path d="M27.8333 28.6667C28.2936 28.6667 28.6667 28.2936 28.6667 27.8333C28.6667 27.3731 28.2936 27 27.8333 27C27.3731 27 27 27.3731 27 27.8333C27 28.2936 27.3731 28.6667 27.8333 28.6667Z" fill="#00C194" stroke="#00C194" stroke-width="2" stroke-linecap="round" stroke-linejoin="round"/>
<path d="M36.1663 36.9997C36.6266 36.9997 36.9997 36.6266 36.9997 36.1663C36.9997 35.7061 36.6266 35.333 36.1663 35.333C35.7061 35.333 35.333 35.7061 35.333 36.1663C35.333 36.6266 35.7061 36.9997 36.1663 36.9997Z" fill="#00C194" stroke="#00C194" stroke-width="2" stroke-linecap="round" stroke-linejoin="round"/>
<rect x="40" y="40" width="24" height="24" rx="12" fill="#00C194"/>
<path d="M45.6 52.7999C45.6 52.5877 45.6843 52.3842 45.8343 52.2342C45.9843 52.0842 46.1878 51.9999 46.4 51.9999H48C48.2121 51.9999 48.4156 52.0842 48.5657 52.2342C48.7157 52.3842 48.8 52.5877 48.8 52.7999V56.7999C48.8 57.0121 48.7157 57.2156 48.5657 57.3656C48.4156 57.5156 48.2121 57.5999 48 57.5999H46.4C46.1878 57.5999 45.9843 57.5156 45.8343 57.3656C45.6843 57.2156 45.6 57.0121 45.6 56.7999V52.7999ZM50.4 49.5999C50.4 49.3877 50.4843 49.1842 50.6343 49.0342C50.7843 48.8842 50.9878 48.7999 51.2 48.7999H52.8C53.0121 48.7999 53.2156 48.8842 53.3657 49.0342C53.5157 49.1842 53.6 49.3877 53.6 49.5999V56.7999C53.6 57.0121 53.5157 57.2156 53.3657 57.3656C53.2156 57.5156 53.0121 57.5999 52.8 57.5999H51.2C50.9878 57.5999 50.7843 57.5156 50.6343 57.3656C50.4843 57.2156 50.4 57.0121 50.4 56.7999V49.5999ZM55.2 47.1999C55.2 46.9877 55.2843 46.7842 55.4343 46.6342C55.5843 46.4842 55.7878 46.3999 56 46.3999H57.6C57.8121 46.3999 58.0156 46.4842 58.1657 46.6342C58.3157 46.7842 58.4 46.9877 58.4 47.1999V56.7999C58.4 57.0121 58.3157 57.2156 58.1657 57.3656C58.0156 57.5156 57.8121 57.5999 57.6 57.5999H56C55.7878 57.5999 55.5843 57.5156 55.4343 57.3656C55.2843 57.2156 55.2 57.0121 55.2 56.7999V47.1999Z" fill="white"/>
<defs>
<clipPath id="clip0_601_2266">
<rect width="32" height="32" fill="white" transform="translate(16 16)"/>
</clipPath>
</defs>
</svg>
