<svg width="65" height="64" viewBox="0 0 65 64" fill="none" xmlns="http://www.w3.org/2000/svg">
<circle cx="32.5" cy="32" r="31.5" stroke="#00C194" stroke-opacity="0.4"/>
<circle cx="32.5" cy="32" r="28" fill="#00C194" fill-opacity="0.4"/>
<path d="M36.5 45.3334H28.5C21.8333 45.3334 19.1666 42.6667 19.1666 36.0001V28.0001C19.1666 21.3334 21.8333 18.6667 28.5 18.6667H36.5C43.1666 18.6667 45.8333 21.3334 45.8333 28.0001V36.0001C45.8333 42.6667 43.1666 45.3334 36.5 45.3334Z" fill="white"/>
<path d="M28.0625 35.1064C28.0625 36.8264 29.3825 38.213 31.0225 38.213H34.3692C35.7958 38.213 36.9558 36.9997 36.9558 35.5064C36.9558 33.8797 36.2492 33.3064 35.1958 32.933L29.8225 31.0664C28.7692 30.693 28.0625 30.1197 28.0625 28.493C28.0625 26.9997 29.2225 25.7864 30.6492 25.7864H33.9958C35.6358 25.7864 36.9558 27.173 36.9558 28.893" stroke="#00C194" stroke-width="2" stroke-linecap="round" stroke-linejoin="round"/>
<path d="M32.5 24V40" stroke="#00C194" stroke-width="2" stroke-linecap="round" stroke-linejoin="round"/>
<rect x="40.5" y="40" width="24" height="24" rx="12" fill="#00C194"/>
<g clip-path="url(#clip0_601_2298)">
<path d="M47.8334 52.0001L51.1667 55.3334L57.8334 48.6667" stroke="white" stroke-width="2" stroke-linecap="round" stroke-linejoin="round"/>
</g>
<defs>
<clipPath id="clip0_601_2298">
<rect width="16" height="16" fill="white" transform="translate(44.5 44)"/>
</clipPath>
</defs>
</svg>
